<svg width="18" height="20" viewBox="0 0 18 20" fill="none" xmlns="http://www.w3.org/2000/svg">
<path d="M11.75 14.75V15.75C11.75 17.4069 10.4069 18.75 8.75 18.75C7.09315 18.75 5.75 17.4069 5.75 15.75V14.75M11.75 14.75H5.75M11.75 14.75H15.3405C15.723 14.75 15.9152 14.75 16.0701 14.6978C16.366 14.598 16.5975 14.3656 16.6973 14.0698C16.7497 13.9143 16.7497 13.7215 16.7497 13.3359C16.7497 13.1672 16.7495 13.0829 16.7363 13.0024C16.7114 12.8504 16.6524 12.7063 16.5626 12.5812C16.5151 12.5151 16.4548 12.4548 16.3358 12.3358L15.9463 11.9463C15.8206 11.8206 15.75 11.6501 15.75 11.4724V7.75C15.75 3.884 12.616 0.749991 8.75 0.75C4.88401 0.750009 1.75 3.88401 1.75 7.75V11.4724C1.75 11.6502 1.67924 11.8206 1.55357 11.9463L1.16406 12.3358C1.04476 12.4551 0.985042 12.515 0.9375 12.5812C0.847655 12.7064 0.788146 12.8504 0.7632 13.0024C0.75 13.0829 0.75 13.1672 0.75 13.336C0.75 13.7215 0.75 13.9142 0.802452 14.0697C0.90225 14.3656 1.1348 14.598 1.43066 14.6978C1.58556 14.75 1.77701 14.75 2.15956 14.75H5.75" stroke="#2F2F3B" stroke-width="1.5" stroke-linecap="round" stroke-linejoin="round"/>
</svg>
